# xmcd CD database file
#
# Track frame offsets:
#	182
#	12442
#	27845
#	41957
#	56560
#	70105
#	84425
#	97042
#	110080
#	122707
#	136920
#	147157
#	159812
#	170827
#	181755
#	195412
#	207110
#	219397
#
# Disc length: 3123 seconds
#
# Revision: 0
# Processed by: cddbd v1.5PL3 Copyright (c) Steve Scherf et al.
# Submitted via: CDex 1.50
#
DISCID=fa0c3112
DTITLE=Josephine Baker - Josephine Baker
DYEAR=1931
DGENRE=Jazz
TTITLE0=La Petite Tonkinoise
TTITLE1=Suppose!
TTITLE2=Pretty Little Baby
TTITLE3=J'ai Deux Amours
TTITLE4=Voulez-Voues De La Canne A Sucre
TTITLE5=Dis-Moi Josephine
TTITLE6=Pardon Si Je T'Importune
TTITLE7=Aux Iles Hawai
TTITLE8=Love Is A Dreamer
TTITLE9=King For The Day
TTITLE10=My Fate Is In Your Hands
TTITLE11=Confessin'
TTITLE12=You're Driving Me Crazy
TTITLE13=You're The One I Care For
TTITLE14=Madiana
TTITLE15=Mon Reve C'Etait Vous
TTITLE16=Si J'Etais Blanche
TTITLE17=Sans Amour
EXTD=YEAR: 1931
EXTT0=
EXTT1=
EXTT2=
EXTT3=
EXTT4=
EXTT5=
EXTT6=
EXTT7=
EXTT8=
EXTT9=
EXTT10=
EXTT11=
EXTT12=
EXTT13=
EXTT14=
EXTT15=
EXTT16=
EXTT17=
PLAYORDER=
